<svg xmlns="http://www.w3.org/2000/svg" width="24.688" height="27.131" viewBox="0 0 24.688 27.131">
  <path id="Icon_awesome-phone-alt" data-name="Icon awesome-phone-alt" d="M23.984,19.172l-5.4-2.544a1.091,1.091,0,0,0-1.35.366l-2.392,3.211A18.852,18.852,0,0,1,6.3,10.816L9.22,8.188A1.352,1.352,0,0,0,9.552,6.7L7.238.769A1.142,1.142,0,0,0,5.912.032L.9,1.3A1.253,1.253,0,0,0,0,2.544C0,16.136,10.025,27.131,22.374,27.131a1.186,1.186,0,0,0,1.128-.986l1.157-5.511a1.323,1.323,0,0,0-.676-1.463Z" transform="translate(0 0)"/>
</svg>
